<svg xmlns="http://www.w3.org/2000/svg" viewBox="0 0 900 534">
<defs>
<linearGradient id="bg" x1="0" y1="0" x2="0" y2="1">
<stop offset="0%" stop-color="#1c1c22"/><stop offset="100%" stop-color="#131318"/>
</linearGradient>
<radialGradient id="glow" cx="50%" cy="42%" r="62%">
<stop offset="0%" stop-color="#ffd600" stop-opacity="0.18"/>
<stop offset="100%" stop-color="#ffd600" stop-opacity="0"/>
</radialGradient>
</defs>
<rect width="900" height="534" fill="url(#bg)"/>
<rect width="900" height="534" fill="url(#glow)"/>
<g opacity="0.05" stroke="#ffffff" stroke-width="2" fill="none">
<rect x="-60" y="360" width="240" height="240" rx="28"/>
<rect x="740" y="-80" width="240" height="240" rx="28"/>
</g>
<g transform="translate(450 267) scale(0.72) translate(-450 -267)">

<g transform="translate(450 96) matrix(0.866 0.5 -0.866 0.5 0 0)"><rect x="0.0" y="0.0" width="54.0" height="54.0" rx="6" fill="#ffd600" stroke="rgba(0,0,0,0.45)" stroke-width="2.5"/>
<rect x="60.0" y="0.0" width="54.0" height="54.0" rx="6" fill="#ffd600" stroke="rgba(0,0,0,0.45)" stroke-width="2.5"/>
<rect x="120.0" y="0.0" width="54.0" height="54.0" rx="6" fill="#ffd600" stroke="rgba(0,0,0,0.45)" stroke-width="2.5"/>
<rect x="0.0" y="60.0" width="54.0" height="54.0" rx="6" fill="#ffd600" stroke="rgba(0,0,0,0.45)" stroke-width="2.5"/>
<rect x="60.0" y="60.0" width="54.0" height="54.0" rx="6" fill="#ffd600" stroke="rgba(0,0,0,0.45)" stroke-width="2.5"/>
<rect x="120.0" y="60.0" width="54.0" height="54.0" rx="6" fill="#2979ff" stroke="rgba(0,0,0,0.45)" stroke-width="2.5"/>
<rect x="0.0" y="120.0" width="54.0" height="54.0" rx="6" fill="#2979ff" stroke="rgba(0,0,0,0.45)" stroke-width="2.5"/>
<rect x="60.0" y="120.0" width="54.0" height="54.0" rx="6" fill="#ff3b30" stroke="rgba(0,0,0,0.45)" stroke-width="2.5"/>
<rect x="120.0" y="120.0" width="54.0" height="54.0" rx="6" fill="#ffd600" stroke="rgba(0,0,0,0.45)" stroke-width="2.5"/></g>
<g transform="translate(299.3 183) matrix(0.866 0.5 0 1 0 0)"><rect x="0.0" y="0.0" width="54.0" height="54.0" rx="6" fill="#ffd600" stroke="rgba(0,0,0,0.45)" stroke-width="2.5"/>
<rect x="60.0" y="0.0" width="54.0" height="54.0" rx="6" fill="#00c853" stroke="rgba(0,0,0,0.45)" stroke-width="2.5"/>
<rect x="120.0" y="0.0" width="54.0" height="54.0" rx="6" fill="#00c853" stroke="rgba(0,0,0,0.45)" stroke-width="2.5"/>
<rect x="0.0" y="60.0" width="54.0" height="54.0" rx="6" fill="#00c853" stroke="rgba(0,0,0,0.45)" stroke-width="2.5"/>
<rect x="60.0" y="60.0" width="54.0" height="54.0" rx="6" fill="#00c853" stroke="rgba(0,0,0,0.45)" stroke-width="2.5"/>
<rect x="120.0" y="60.0" width="54.0" height="54.0" rx="6" fill="#00c853" stroke="rgba(0,0,0,0.45)" stroke-width="2.5"/>
<rect x="0.0" y="120.0" width="54.0" height="54.0" rx="6" fill="#00c853" stroke="rgba(0,0,0,0.45)" stroke-width="2.5"/>
<rect x="60.0" y="120.0" width="54.0" height="54.0" rx="6" fill="#00c853" stroke="rgba(0,0,0,0.45)" stroke-width="2.5"/>
<rect x="120.0" y="120.0" width="54.0" height="54.0" rx="6" fill="#00c853" stroke="rgba(0,0,0,0.45)" stroke-width="2.5"/></g>
<g transform="translate(450 270) matrix(0.866 -0.5 0 1 0 0)"><rect x="0.0" y="0.0" width="54.0" height="54.0" rx="6" fill="#ff9100" stroke="rgba(0,0,0,0.45)" stroke-width="2.5"/>
<rect x="60.0" y="0.0" width="54.0" height="54.0" rx="6" fill="#ff9100" stroke="rgba(0,0,0,0.45)" stroke-width="2.5"/>
<rect x="120.0" y="0.0" width="54.0" height="54.0" rx="6" fill="#ff9100" stroke="rgba(0,0,0,0.45)" stroke-width="2.5"/>
<rect x="0.0" y="60.0" width="54.0" height="54.0" rx="6" fill="#ff9100" stroke="rgba(0,0,0,0.45)" stroke-width="2.5"/>
<rect x="60.0" y="60.0" width="54.0" height="54.0" rx="6" fill="#ff9100" stroke="rgba(0,0,0,0.45)" stroke-width="2.5"/>
<rect x="120.0" y="60.0" width="54.0" height="54.0" rx="6" fill="#ff9100" stroke="rgba(0,0,0,0.45)" stroke-width="2.5"/>
<rect x="0.0" y="120.0" width="54.0" height="54.0" rx="6" fill="#ff9100" stroke="rgba(0,0,0,0.45)" stroke-width="2.5"/>
<rect x="60.0" y="120.0" width="54.0" height="54.0" rx="6" fill="#ff9100" stroke="rgba(0,0,0,0.45)" stroke-width="2.5"/>
<rect x="120.0" y="120.0" width="54.0" height="54.0" rx="6" fill="#ff9100" stroke="rgba(0,0,0,0.45)" stroke-width="2.5"/></g>

</g>
</svg>