<svg xmlns="http://www.w3.org/2000/svg" viewBox="0 0 900 534">
<defs>
<linearGradient id="bg" x1="0" y1="0" x2="0" y2="1">
<stop offset="0%" stop-color="#1c1c22"/><stop offset="100%" stop-color="#131318"/>
</linearGradient>
<radialGradient id="glow" cx="50%" cy="42%" r="62%">
<stop offset="0%" stop-color="#ff3b30" stop-opacity="0.16"/>
<stop offset="100%" stop-color="#ff3b30" stop-opacity="0"/>
</radialGradient>
</defs>
<rect width="900" height="534" fill="url(#bg)"/>
<rect width="900" height="534" fill="url(#glow)"/>
<g opacity="0.05" stroke="#ffffff" stroke-width="2" fill="none">
<rect x="-60" y="360" width="240" height="240" rx="28"/>
<rect x="740" y="-80" width="240" height="240" rx="28"/>
</g>
<g transform="translate(450 267) scale(0.78) translate(-450 -267)">
<rect x="204" y="141" width="78" height="78" rx="8" fill="#2a2a33" stroke="rgba(255,255,255,0.10)" stroke-width="1.5"/>
<rect x="291" y="141" width="78" height="78" rx="8" fill="#2a2a33" stroke="rgba(255,255,255,0.10)" stroke-width="1.5"/>
<rect x="378" y="141" width="78" height="78" rx="8" fill="#2a2a33" stroke="rgba(255,255,255,0.10)" stroke-width="1.5"/>
<rect x="204" y="228" width="78" height="78" rx="8" fill="#2a2a33" stroke="rgba(255,255,255,0.10)" stroke-width="1.5"/>
<rect x="291" y="228" width="78" height="78" rx="8" fill="#2a2a33" stroke="rgba(255,255,255,0.10)" stroke-width="1.5"/>
<rect x="378" y="228" width="78" height="78" rx="8" fill="rgba(255,59,48,0.06)" stroke="#ff3b30" stroke-width="2.5" stroke-dasharray="7 6"/>
<rect x="204" y="315" width="78" height="78" rx="8" fill="#2a2a33" stroke="rgba(255,255,255,0.10)" stroke-width="1.5"/>
<rect x="291" y="315" width="78" height="78" rx="8" fill="#2a2a33" stroke="rgba(255,255,255,0.10)" stroke-width="1.5"/>
<rect x="378" y="315" width="78" height="78" rx="8" fill="rgba(255,59,48,0.06)" stroke="#ff3b30" stroke-width="2.5" stroke-dasharray="7 6"/>
<g transform="rotate(12 580 150)">
<rect x="580" y="150" width="78" height="78" rx="8" fill="#ff3b30" stroke="rgba(0,0,0,0.4)" stroke-width="2"/>
<rect x="580" y="237" width="78" height="78" rx="8" fill="#f2f2f2" stroke="rgba(0,0,0,0.4)" stroke-width="2"/>
</g>
<path d="M 570 330 Q 520 350 468 330" fill="none" stroke="#ff3b30" stroke-width="6" stroke-linecap="round" stroke-dasharray="1 14" opacity="0.9"/>
<path d="M 585 300 Q 540 345 470 332" fill="none" stroke="#ff3b30" stroke-width="6" stroke-linecap="round"/>
<polygon points="470,332 492,320 490,346" fill="#ff3b30"/>
</g>
</svg>